<?xml version="1.0" standalone="no"?>
<!DOCTYPE svg PUBLIC "-//W3C//DTD SVG 20010904//EN"
 "http://www.w3.org/TR/2001/REC-SVG-20010904/DTD/svg10.dtd">
<svg version="1.0" xmlns="http://www.w3.org/2000/svg"
 width="500.000000pt" height="500.000000pt" viewBox="0 0 500.000000 500.000000"
 preserveAspectRatio="xMidYMid meet">

<g transform="translate(0.000000,500.000000) scale(0.100000,-0.100000)"
fill="#000000" stroke="none">
<path d="M1160 3620 l0 -30 120 0 120 0 0 -1065 0 -1065 -120 0 -120 0 0 -30
0 -30 380 0 380 0 0 30 0 30 -120 0 -120 0 0 1095 0 1095 -260 0 -260 0 0 -30z"/>
<path d="M3240 3620 l0 -30 115 0 115 0 0 -1065 0 -1065 -115 0 -115 0 0 -30
0 -30 375 0 375 0 0 30 0 30 -115 0 -115 0 0 1095 0 1095 -260 0 -260 0 0 -30z"/>
<path d="M4376 3454 c-19 -18 -21 -65 -4 -82 17 -17 64 -15 82 4 22 21 20 50
-4 74 -24 24 -53 26 -74 4z"/>
<path d="M536 3163 l-136 -67 0 -193 0 -193 -115 0 -115 0 0 -25 0 -25 115 0
114 0 3 -512 c3 -509 3 -513 26 -570 32 -80 97 -148 174 -184 59 -27 71 -29
188 -29 157 0 220 17 278 75 65 65 123 210 101 251 -16 31 -36 10 -53 -58 -19
-79 -67 -149 -119 -176 -111 -58 -233 -16 -284 98 -16 37 -18 85 -21 573 l-3
532 161 0 160 0 0 25 0 25 -160 0 -160 0 0 260 c0 143 -4 260 -9 260 -4 0 -69
-30 -145 -67z"/>
<path d="M4030 3140 c0 -5 18 -10 40 -10 l40 0 0 -335 0 -335 -40 0 c-22 0
-40 -4 -40 -10 0 -6 37 -10 90 -10 53 0 90 4 90 10 0 6 -18 10 -40 10 l-40 0
1 323 c0 177 3 315 6 307 3 -8 55 -157 116 -330 60 -173 111 -317 113 -319 2
-2 6 -2 9 1 3 3 57 153 120 334 l114 329 1 -322 0 -323 -40 0 c-22 0 -40 -4
-40 -10 0 -6 52 -10 135 -10 83 0 135 4 135 10 0 6 -20 10 -45 10 l-45 0 0
335 0 335 45 0 c25 0 45 5 45 10 0 6 -39 10 -97 10 l-98 0 -89 -258 c-49 -141
-92 -262 -95 -269 -3 -6 -49 108 -102 255 l-95 267 -97 3 c-62 2 -97 -1 -97
-8z"/>
<path d="M2436 2748 c-151 -17 -264 -73 -312 -154 -30 -50 -31 -107 -4 -152
23 -37 54 -52 112 -52 32 0 47 7 74 34 29 29 34 41 34 83 0 42 -5 56 -35 90
-19 23 -35 46 -35 53 0 6 21 21 48 33 67 31 248 32 306 1 73 -38 80 -65 84
-326 4 -223 4 -228 -16 -228 -11 0 -65 -5 -121 -10 -274 -29 -481 -142 -563
-308 -30 -61 -33 -75 -33 -157 1 -108 19 -150 91 -214 63 -55 147 -81 264 -81
145 0 276 54 357 148 24 27 33 32 33 19 0 -26 34 -88 62 -114 37 -34 102 -53
188 -53 88 0 125 10 193 54 58 38 98 95 104 150 5 46 6 47 -60 -44 -44 -61
-96 -86 -146 -71 -66 19 -65 8 -71 581 -6 580 -2 552 -84 628 -54 50 -132 79
-244 92 -98 11 -115 11 -226 -2z m274 -883 c0 -170 -3 -234 -14 -258 -35 -81
-168 -162 -263 -160 -124 1 -194 107 -194 294 0 145 49 232 164 288 62 31 185
58 265 60 l42 1 0 -225z"/>
<path d="M4080 2221 c0 -6 21 -11 46 -13 l47 -3 99 -173 99 -173 -98 -157 -99
-157 -47 -3 c-26 -2 -47 -7 -47 -13 0 -5 48 -9 110 -9 67 0 110 4 110 10 0 6
-23 10 -51 10 -28 0 -49 4 -47 9 10 28 174 280 181 278 4 -1 43 -65 87 -142
l79 -140 -40 -3 c-21 -2 -39 -7 -39 -13 0 -5 59 -9 140 -9 87 0 140 4 140 10
0 6 -19 10 -42 10 l-43 0 -105 187 c-58 103 -106 193 -108 199 -2 7 34 73 80
148 l83 135 48 1 c26 0 47 5 47 10 0 6 -43 10 -110 10 -111 0 -155 -16 -60
-22 l50 -3 -76 -122 c-42 -68 -80 -121 -84 -118 -7 4 -128 211 -138 237 -2 4
17 8 42 8 25 0 46 5 46 10 0 6 -57 10 -150 10 -88 0 -150 -4 -150 -9z"/>
</g>
</svg>
